<svg xmlns="http://www.w3.org/2000/svg" viewBox="0 0 840 390" role="img" aria-labelledby="title desc">
 <title id="title">Schematic overview of the Guitar Pro 8 interface</title><desc id="desc">The main window has a toolbar and tab bar on top, editing palette on the left, score workspace in the center, inspector on the right, and global track view below.</desc>
 <rect width="840" height="390" rx="20" fill="#fbf7ee"/><text x="420" y="31" text-anchor="middle" fill="#544c40" font-family="Arial,sans-serif" font-size="17" font-weight="700">GUITAR PRO 8 · MAIN SCREEN MAP</text>
 <rect x="55" y="54" width="730" height="294" rx="14" fill="#fffdf8" stroke="#b9ad98" stroke-width="2"/>
 <rect x="56" y="55" width="728" height="37" rx="12" fill="#e9e3d7"/><text x="420" y="79" text-anchor="middle" fill="#544c40" font-family="Arial,sans-serif" font-size="13" font-weight="700">TOOLBAR + PLAYBACK CONTROLS</text>
 <rect x="56" y="92" width="728" height="27" fill="#f3eee4"/><text x="420" y="111" text-anchor="middle" fill="#8b8272" font-family="Arial,sans-serif" font-size="11">OPEN SCORE TABS</text>
 <rect x="66" y="129" width="101" height="154" rx="7" fill="#e0ebe3"/><text x="116" y="153" text-anchor="middle" fill="#4e7164" font-family="Arial,sans-serif" font-size="12" font-weight="700">EDITING</text><text x="116" y="171" text-anchor="middle" fill="#4e7164" font-family="Arial,sans-serif" font-size="12" font-weight="700">PALETTE</text><path d="M86 189h60m-60 18h60m-60 18h60m-60 18h60" stroke="#9eb8a5" stroke-width="5" stroke-linecap="round"/>
 <rect x="180" y="129" width="435" height="154" rx="7" fill="#fbf7ee" stroke="#d8cebd"/><text x="397" y="151" text-anchor="middle" fill="#544c40" font-family="Arial,sans-serif" font-size="13" font-weight="700">SCORE WORKSPACE</text><g stroke="#d8cebd"><path d="M204 180h388M204 190h388M204 200h388M204 210h388M204 220h388"/></g><g fill="#b23a26"><circle cx="275" cy="205" r="5"/><circle cx="338" cy="190" r="5"/><circle cx="402" cy="180" r="5"/><circle cx="466" cy="195" r="5"/><circle cx="530" cy="210" r="5"/></g>
 <rect x="628" y="129" width="145" height="154" rx="7" fill="#f1e3d2"/><text x="700" y="155" text-anchor="middle" fill="#87643c" font-family="Arial,sans-serif" font-size="12" font-weight="700">INSPECTOR</text><text x="700" y="180" text-anchor="middle" fill="#544c40" font-family="Arial,sans-serif" font-size="11">Song settings</text><text x="700" y="199" text-anchor="middle" fill="#544c40" font-family="Arial,sans-serif" font-size="11">Track tuning</text><text x="700" y="218" text-anchor="middle" fill="#544c40" font-family="Arial,sans-serif" font-size="11">Notation</text>
 <rect x="66" y="293" width="707" height="42" rx="7" fill="#e9e3d7"/><text x="420" y="319" text-anchor="middle" fill="#544c40" font-family="Arial,sans-serif" font-size="12" font-weight="700">GLOBAL VIEW · TRACKS, MUTE / SOLO, MIX</text>
 <text x="420" y="373" text-anchor="middle" fill="#8b8272" font-family="Arial,sans-serif" font-size="12">This is a learning diagram, not a screenshot; panel positions follow the official GP8 guide.</text>
</svg>
